<svg width="24" height="21" viewBox="0 0 24 21" fill="none" xmlns="http://www.w3.org/2000/svg">
<path d="M15.167 20.4932H11.6016V16.9258H15.167V20.4932ZM16.9521 20.4932H15.168V18.709H16.9521V20.4932ZM12.4951 15.1406H12.4961V7.11133H14.2803V15.1416H13.3857V16.9248H11.6016V15.1416H10.7109V7.11133H12.4951V15.1406ZM23.2061 13.3594V15.1436H21.4219V13.3594H23.2061ZM16.0654 15.1416H14.2812V7.11133H16.0654V15.1416ZM10.71 13.3584H8.92578V8.89648H10.71V13.3584ZM17.8506 13.3584H16.0664V8.00977H17.8506V13.3584ZM19.6357 13.3584H17.8516V9.79297H19.6357V13.3584ZM21.4209 13.3584H19.6367V11.5742H21.4209V13.3584ZM1.78418 12.4697H0V10.6855H1.78418V12.4697ZM3.56934 12.4697H1.78516V10.6855H3.56934V12.4697ZM5.35449 12.4697H3.57031V10.6855H5.35449V12.4697ZM7.13965 12.4697H5.35547V10.6855H7.13965V12.4697ZM8.9248 12.4697H7.14062V10.6855H8.9248V12.4697ZM1.78418 10.6846H0V7.11719H1.78418V10.6846ZM3.56934 10.6846H1.78516V8.90039H3.56934V10.6846ZM7.13965 10.6846H5.35547V8.90039H7.13965V10.6846ZM8.9248 10.6846H7.14062V0H8.9248V10.6846ZM10.71 8.89551H8.92578V7.11133H10.71V8.89551ZM7.13965 7.11816H5.35547V0H7.13965V7.11816ZM10.71 7.11035H8.92578V5.32617H10.71V7.11035ZM12.4951 7.11035H10.7109V5.32617H12.4951V7.11035ZM14.2803 7.11035H12.4961V5.32617H14.2803V7.11035ZM16.0654 7.11035H14.2812V3.55078H16.0654V7.11035ZM5.35449 5.33496H3.57031V0H5.35449V5.33496ZM10.71 5.3252H8.92578V0H10.71V5.3252ZM12.4951 5.3252H10.7109V0H12.4951V5.3252ZM14.2803 5.3252H12.4961V0H14.2803V5.3252ZM3.56934 3.55957H1.78516V0H3.56934V3.55957ZM1.78418 1.78418H0V0H1.78418V1.78418Z" fill="#29345A"/>
</svg>
