<svg width="22" height="22" viewBox="0 0 22 22" fill="none" xmlns="http://www.w3.org/2000/svg">
<path fill-rule="evenodd" clip-rule="evenodd" d="M7.11523 19.6318H3.57129V21.416H1.78711V19.6318H3.56641V17.8477H7.11523V19.6318ZM12.4756 17.8467H5.34766V16.0625H12.4756V17.8467ZM1.78418 16.0654H0V14.2812H1.78418V16.0654ZM5.35059 14.2803H3.56934V16.0615H1.78516V14.2773H3.56641V12.4961H5.35059V14.2803ZM14.2568 16.0615H7.12891V14.2773H14.2568V16.0615ZM17.8193 14.2764H8.91016V12.4922H17.8193V14.2764ZM19.6006 9.81641H21.3818V11.6006H19.6006V12.4912H3.56641V10.707H10.6914V8.92578H19.6006V9.81641ZM3.56543 10.7061H1.78125V8.92188H3.56543V10.7061ZM17.8193 8.9248H8.91016V7.14062H17.8193V8.9248ZM14.2568 7.13965H8.91016V5.35547H14.2568V7.13965ZM12.4756 5.35449H7.12891V3.57031H12.4756V5.35449ZM7.13184 3.56934H5.34766V1.78516H7.13184V3.56934ZM8.91797 3.56934H7.13379V1.78516H8.91797V3.56934ZM5.35254 1.78418H3.56934V0H5.35254V1.78418Z" fill="#29345A"/>
</svg>
