<svg width="47" height="30" viewBox="0 0 47 30" fill="none" xmlns="http://www.w3.org/2000/svg">
<path d="M38 14.6667C39.0137 15.1735 44.2661 19.5337 46.7262 21.5952C46.9974 21.8224 46.7553 22.2551 46.4191 22.1448C43.1151 21.0611 35.6983 18.6667 34.6667 18.6667C33.3334 18.6667 22.2892 21.2247 21.3334 21.3333C20.3775 21.442 20.6667 23.3333 21.3334 24.6667C21.8391 25.6782 25.7984 28.2246 27.6799 29.3948C27.9567 29.5669 27.8324 30 27.5065 30H19.7127C19.5141 30 19.3621 29.8217 19.3901 29.6251C19.5358 28.5994 19.8756 25.7511 19.3334 24.6667C18.6667 23.3333 16.9522 20.6667 16 20C15.0479 19.3333 9.02505 15.7244 4.00003 14.9651C2.78763 14.7819 1.02237 14.7026 0.312652 14.6769C0.138573 14.6705 2.87453e-05 14.5278 2.87453e-05 14.3536V10.1092C2.87453e-05 9.82285 0.354437 9.66939 0.570445 9.85729C1.30653 10.4976 2.65328 11.5511 4.00003 12C5.64199 12.5473 11.7773 11.2973 13.9214 10.8322C14.2 10.7718 14.2601 10.4079 14.0196 10.2549L0.851244 1.87502C0.587 1.70686 0.694903 1.29859 1.00772 1.28295L26.6667 0C30.6667 0 29.3334 10.6667 30 12C30.6667 13.3333 32.6667 14 33.3334 14C34 14 36.6667 14 38 14.6667Z" fill="#88AEFF"/>
</svg>
