<svg width="22" height="22" viewBox="0 0 22 22" fill="none" xmlns="http://www.w3.org/2000/svg">
<path d="M1.78125 21.375H0V19.5938H1.78125V21.375ZM3.5625 17.8125H5.34375V19.5938H1.78125V16.0312H3.5625V17.8125ZM21.375 5.34375H19.5938V8.90625H17.8125V10.6875H16.0312V12.4688H14.25V14.25H12.4688V16.0312H8.90625V17.8125H5.34375V16.0312H3.5625V14.25H5.34375V8.90625H7.125V7.125H8.90625V5.34375H10.6875V3.5625H12.4688V1.78125H14.25V0H21.375V5.34375ZM3.57422 2.66992H5.35547V4.45117H3.57422V6.23047H1.79297V4.44922H3.57422V2.67188H1.79297V0.890625H3.57422V2.66992ZM1.78125 4.45117H0V2.66992H1.78125V4.45117Z" fill="white"/>
</svg>
