<svg width="20" height="24" viewBox="0 0 20 24" fill="none" xmlns="http://www.w3.org/2000/svg">
<path d="M1.78125 23.1572H0V21.376H1.78125V23.1572ZM3.5625 21.376H1.78125V17.8135H3.5625V21.376ZM8.90625 19.5947H10.6875V21.376H7.125V19.5947H5.34375V17.8135H8.90625V19.5947ZM5.34375 17.8135H3.5625V14.251H5.34375V17.8135ZM3.5625 14.251H1.78125V12.4697H0V8.90723H1.78125V7.12598H3.5625V14.251ZM7.125 14.251H5.34375V12.4697H7.125V14.251ZM16.0312 3.56348H17.8125V5.34473H16.0312V7.12598H12.4717V8.90723H19.5938V10.6885H17.8125V12.4697H16.0312V10.6885H12.4688V12.4697H7.125V7.12598H8.90625V8.90723H10.6875V10.6885H12.4688V8.90723H10.6904V7.12598H12.4688V3.56348H14.25V1.78223H16.0312V3.56348ZM10.6875 7.12598H8.90625V3.56348H7.125V1.78223H8.90625V0.000976562H10.6875V7.12598ZM19.5938 7.12598H17.8125V5.34473H19.5938V7.12598ZM14.25 1.78125H12.4688V0H14.25V1.78125ZM19.5938 1.78125H17.8125V0H19.5938V1.78125Z" fill="white"/>
</svg>
