<svg width="17" height="13" viewBox="0 0 17 13" fill="none" xmlns="http://www.w3.org/2000/svg">
<path d="M14.2823 7.13372L16.0664 7.13372L16.0664 5.34961L14.2823 5.34961L14.2823 7.13372Z" fill="white"/>
<path d="M12.4971 8.91693L14.2812 8.91693L14.2813 7.13281L12.4971 7.13281L12.4971 8.91693Z" fill="white"/>
<path d="M10.712 10.7001L12.4961 10.7001L12.4961 8.91602L10.712 8.91602L10.712 10.7001Z" fill="white"/>
<path d="M8.92683 12.4833L10.7109 12.4833L10.7109 10.6992L8.92683 10.6992L8.92683 12.4833Z" fill="white"/>
<path d="M12.4971 5.35052L14.2812 5.35052L14.2813 3.56641L12.4971 3.56641L12.4971 5.35052Z" fill="white"/>
<path d="M10.712 3.56732L12.4961 3.56732L12.4961 1.7832L10.712 1.7832L10.712 3.56732Z" fill="white"/>
<path d="M8.92683 1.78411L10.7109 1.78411L10.7109 1.52369e-06L8.92683 1.36772e-06L8.92683 1.78411Z" fill="white"/>
<path d="M8.92683 7.13372L10.7109 7.13372L10.7109 5.34961L8.92683 5.34961L8.92683 7.13372Z" fill="white"/>
<path d="M10.7081 7.13372L12.4922 7.13372L12.4922 5.34961L10.7081 5.34961L10.7081 7.13372Z" fill="white"/>
<path d="M7.14167 7.13372L8.92578 7.13372L8.92578 5.34961L7.14167 5.34961L7.14167 7.13372Z" fill="white"/>
<path d="M5.35651 7.13372L7.14062 7.13372L7.14063 5.34961L5.35651 5.34961L5.35651 7.13372Z" fill="white"/>
<path d="M3.57136 7.13372L5.35547 7.13372L5.35547 5.34961L3.57136 5.34961L3.57136 7.13372Z" fill="white"/>
<path d="M1.7862 7.13372L3.57031 7.13372L3.57031 5.34961L1.7862 5.34961L1.7862 7.13372Z" fill="white"/>
<path d="M0.00104403 7.13372L1.78516 7.13372L1.78516 5.34961L0.00104419 5.34961L0.00104403 7.13372Z" fill="white"/>
</svg>
