<svg width="16" height="16" viewBox="0 0 16 16" fill="none" xmlns="http://www.w3.org/2000/svg">
<path d="M0 8.00302C1.89111 7.7296 4.08244 7.7401 5.70205 6.59217C7.745 5.14418 7.64415 2.20892 8.00312 0C8.0478 0.47793 8.12025 1.04611 8.18318 1.52395C8.37129 2.95222 8.56725 4.62808 9.47319 5.79966C10.4724 7.09182 12.0535 7.48217 13.5896 7.71188C14.391 7.8317 15.195 7.90422 16 8.00088C14.4316 8.17452 12.6452 8.30125 11.1925 8.90141L10.9818 8.99693C10.6357 9.18514 10.4374 9.29011 10.1207 9.5408C8.8049 10.582 8.48801 12.2774 8.26522 13.8519C8.169 14.5669 8.08168 15.2829 8.00325 16C7.94179 15.6667 7.91116 15.2367 7.86504 14.8908C7.6553 13.3171 7.50553 11.4215 6.47773 10.14C5.39076 8.78483 3.59886 8.43822 1.96915 8.2259C1.31362 8.14423 0.657196 8.06993 0 8.00302Z" fill="#143A8A"/>
</svg>
