<svg width="64" height="57" viewBox="0 0 64 57" fill="none" xmlns="http://www.w3.org/2000/svg">
<path d="M50.665 44.3359H44.334V50.6699H38.0059V56.999H25.3379V38.002H50.665V44.3359ZM25.3271 50.6699H18.9932V44.3359H12.6621V38.002H25.3271V50.6699ZM25.3271 18.9971H6.33203V18.998H25.3271V25.332H6.33203V25.333H25.3271V38.001H6.33105V31.6641H0V12.6641H6.33105V6.33496H25.3271V18.9971ZM56.9961 12.6641H63.3252V31.6641H56.9961V38.001H25.3379V25.333H37.459V25.332H25.3379V18.998H28.4395V18.9971H25.3379V6.33496H56.9961V12.6641ZM25.3281 6.33398H12.6621V0H25.3281V6.33398ZM50.666 6.33398H38V0H50.666V6.33398Z" fill="white"/>
<path d="M31.8666 18.7578L40.0612 26.9525M40.0612 26.9525L31.8666 35.1472M40.0612 26.9525H23.6719" stroke="#2A2336" stroke-width="2"/>
</svg>
