<svg width="135" height="24" viewBox="0 0 135 24" fill="none" xmlns="http://www.w3.org/2000/svg">
<g clip-path="url(#clip0_6018_12188)">
<path d="M20.0674 8.47559H22.5693V10.9785H23.8213V13.4805H22.5693V15.9834H20.0674V17.2344H17.5645V15.9834H15.0625V13.4805H13.8115V10.9785H15.0625V8.47559H17.5645V7.22461H20.0674V8.47559ZM58.8691 8.47559H61.3721V10.9785H62.623V13.4805H61.3721V15.9834H58.8691V17.2344H56.3672V15.9834H53.8652V13.4805H52.6133V10.9785H53.8652V8.47559H56.3672V7.22461H58.8691V8.47559ZM29.7529 7.39844C32.4216 7.39853 34.584 9.5608 34.584 12.2295C34.5839 14.8981 32.4216 17.0605 29.7529 17.0605C27.0842 17.0605 24.9219 14.8982 24.9219 12.2295C24.9219 9.56074 27.0848 7.39844 29.7529 7.39844ZM47.0674 7.62891C48.0261 7.62891 48.8226 7.83877 49.4561 8.25684C50.0895 8.67549 50.5688 9.22595 50.8945 9.90723C51.2202 10.589 51.3828 11.3481 51.3828 12.1846V16.8311H48.8604V12.6162C48.8604 12.1502 48.7925 11.7281 48.6562 11.3516C48.5199 10.9749 48.3068 10.6726 48.0166 10.4453C47.7264 10.218 47.3502 10.1045 46.8887 10.1045C46.4273 10.1045 46.0546 10.216 45.7705 10.4365C45.4863 10.6577 45.276 10.9574 45.1396 11.334C45.0034 11.7104 44.9356 12.1258 44.9355 12.5801V16.832H42.4131V12.5977C42.413 12.1318 42.348 11.7104 42.2178 11.334C42.0875 10.9574 41.8744 10.6584 41.5781 10.4365C41.2819 10.2154 40.9093 10.1045 40.46 10.1045C39.9865 10.1045 39.6074 10.2187 39.3232 10.4453C39.0391 10.6726 38.8319 10.9749 38.7021 11.3516C38.5719 11.728 38.5059 12.1433 38.5059 12.5977V16.832H35.9844V12.1855C35.9844 11.3605 36.1442 10.6043 36.4639 9.91699C36.7836 9.22957 37.2607 8.67551 37.8936 8.25684C38.527 7.83833 39.317 7.62988 40.2646 7.62988C41.0215 7.62992 41.6759 7.77005 42.2266 8.05078C42.7768 8.33172 43.2042 8.72073 43.5059 9.2168C43.579 9.33719 43.6421 9.46298 43.6982 9.59277C43.7578 9.46265 43.8276 9.33736 43.9053 9.2168C44.225 8.72092 44.6565 8.33165 45.2012 8.05078C45.7454 7.76986 46.3672 7.62988 47.0664 7.62988L47.0674 7.62891ZM7.73145 7.66406C8.64338 7.66406 9.49861 7.90789 10.2344 8.33398C11.7302 9.199 12.7363 10.8171 12.7363 12.6689V16.7969H10.2344V12.6689C10.2344 11.287 9.11337 10.166 7.73145 10.166C6.3497 10.1662 5.22852 11.2872 5.22852 12.6689V16.7969H2.72656V12.6689C2.72656 10.8172 3.73275 9.19902 5.22852 8.33398C5.96479 7.90795 6.81966 7.66413 7.73145 7.66406ZM17.5645 10.9785H16.3135V13.4805H17.5645V14.7324H20.0674V13.4805H21.3184V10.9785H20.0674V9.72656H17.5645V10.9785ZM56.3672 10.9785H55.1162V13.4805H56.3672V14.7324H58.8691V13.4805H60.1211V10.9785H58.8691V9.72656H56.3672V10.9785ZM29.7529 9.81445C28.4192 9.81445 27.3379 10.8957 27.3379 12.2295C27.338 13.5632 28.4186 14.6445 29.7529 14.6445C31.0866 14.6444 32.1679 13.5631 32.168 12.2295C32.168 10.8958 31.0866 9.81454 29.7529 9.81445Z" fill="#2A2336"/>
<path fill-rule="evenodd" clip-rule="evenodd" d="M130.413 15.7822C130.412 15.8765 130.452 15.8886 130.612 15.7703C130.501 16.37 130.135 17.1475 130.034 17.568C129.951 17.8087 129.854 18.0993 129.758 18.3954C129.237 19.9842 128.546 21.3816 127.767 22.4481C126.771 23.8093 125.66 24.5211 125.045 24.2127C124.263 23.8305 124.867 22.2195 126.625 20.0626C127.427 19.0789 128.61 17.7557 129.237 17.1145C129.305 17.0417 129.36 16.9779 129.406 16.9143C129.668 16.6904 130.109 16.1681 130.413 15.7822ZM128.997 18.0957C128.914 18.1179 128.602 18.4976 128.01 19.1589C126.29 21.1283 125.129 22.9777 125.284 23.5572C125.343 23.778 125.379 23.7983 125.612 23.6765C125.743 23.6118 126.017 23.4195 126.208 23.2501C127.013 22.5019 127.924 21.0457 128.522 19.5252C128.914 18.5627 129.08 18.074 128.997 18.0957Z" fill="#2A2336"/>
<path d="M129.442 14.2871L129.528 14.1728C129.556 14.2586 129.385 14.4585 129.07 14.7157C128.27 15.4014 126.699 16.4585 125.67 16.887C124.642 17.3441 123.956 17.287 123.613 16.7442C123.413 16.4299 123.47 16.087 123.842 15.1157C123.985 14.7442 124.07 14.43 124.042 14.4014C123.899 14.2871 122.499 15.1157 121.728 15.7728C120.956 16.4299 119.899 17.1441 119.699 17.1441C119.585 17.1441 119.413 17.087 119.328 17.0013C119.213 16.9156 119.185 16.7727 119.213 16.5727C119.328 15.9442 120.442 14.0871 120.842 13.8871C120.956 13.83 121.042 13.83 121.156 13.9443C121.328 14.0871 121.328 14.1157 121.071 14.4585C120.699 14.9728 120.013 16.1156 119.928 16.3728C119.871 16.5156 120.185 16.3156 120.985 15.6871C122.87 14.23 123.928 13.7443 124.413 14.1157C124.699 14.3157 124.67 14.7157 124.356 15.4871C124.07 16.1728 124.013 16.7156 124.213 16.7727C124.728 16.9156 126.27 16.1156 128.27 14.6871C129.07 14.1157 129.328 14.03 129.442 14.2871Z" fill="#2A2336"/>
<path d="M117.383 12.4868C117.097 12.8296 116.754 12.9439 116.64 12.7154C116.554 12.5439 117.097 11.8297 117.297 11.8583C117.64 11.9154 117.669 12.144 117.383 12.4868ZM119.811 14.7438C120.726 14.1439 121.069 14.0296 121.126 14.3153C121.126 14.3724 120.897 14.5439 120.554 14.801C119.783 15.3438 118.697 15.9724 117.84 16.4009C116.64 17.0009 116.183 17.1437 115.583 17.1437C115.183 17.1437 115.04 17.0866 114.783 16.8866C114.554 16.7152 114.469 16.5723 114.469 16.3438C114.469 15.9724 114.783 15.201 115.154 14.6581C115.554 14.0582 115.783 13.801 115.983 13.801C116.069 13.801 116.154 13.8582 116.24 13.9439C116.354 14.0582 116.297 14.201 115.869 14.8867C115.069 16.1724 115.012 16.6581 115.697 16.6581C116.326 16.6581 117.954 15.9438 119.811 14.7438Z" fill="#2A2336"/>
<path d="M105.381 14.7426L105.41 14.7712C105.519 14.7113 105.61 14.7941 105.581 14.9655C105.581 15.0512 105.761 15.2104 105.581 15.314C103.467 16.9711 102.01 17.5996 100.753 17.3996C99.7815 17.2282 99.2673 16.7139 99.353 15.9997C99.4673 14.9997 100.696 13.9141 101.582 13.9141C101.696 13.9141 101.81 13.9426 101.924 13.9998C102.41 14.2283 102.381 14.7426 101.81 15.2283C101.496 15.514 101.153 15.5711 100.81 15.5997C100.239 15.6283 100.182 15.5426 100.096 15.714C100.039 15.8283 100.01 16.0568 100.039 16.2283C100.067 16.6854 100.439 16.9139 101.153 16.9139C102.153 16.9139 103.439 16.2568 105.381 14.7426ZM100.839 14.6855C100.639 14.8569 100.61 14.9426 100.696 14.9997C100.867 15.0854 100.867 15.0854 101.239 14.914C101.524 14.7712 101.753 14.4569 101.639 14.3712C101.639 14.3712 101.61 14.3712 101.582 14.3712C101.439 14.3712 101.124 14.4569 100.839 14.6855Z" fill="#2A2336"/>
<path d="M99.6914 14.2899H99.7485C99.7771 14.3756 99.2914 14.6899 98.0628 15.347C95.4914 16.7469 95.6343 16.6041 95.4343 17.1469C95.1772 17.8326 94.3486 19.2325 93.8343 19.8611C92.9486 20.9467 91.5772 21.9181 90.6344 22.1467C90.1487 22.261 90.0916 22.261 89.7487 22.2038C89.0916 22.061 88.8916 21.461 89.2916 20.7753C89.6916 20.0896 91.6344 18.5468 93.9486 17.0898C94.4915 16.7469 94.9486 16.4612 94.9772 16.4326C95.0343 16.3755 95.3772 14.947 95.3772 14.7184C95.3772 14.6042 95.3486 14.4899 95.2914 14.4899C95.2343 14.4899 94.72 14.9184 94.1486 15.4327C92.5772 16.8612 92.3772 17.0041 91.8344 17.0612C91.4344 17.0898 91.3487 17.0612 91.2058 16.8898C90.863 16.4898 91.1201 15.2898 91.7487 14.3756C91.9772 14.0327 92.1487 13.8613 92.3201 13.8613C92.4058 13.8613 92.4629 13.8899 92.5201 13.947C92.6629 14.0613 92.6344 14.1185 92.3201 14.6327C91.9201 15.2898 91.7772 15.6327 91.6915 16.1755C91.6344 16.4898 91.6629 16.5755 91.7772 16.5755C91.9201 16.5755 92.9486 15.7184 93.9486 14.7756C94.2343 14.4899 94.6629 14.1756 94.92 14.0613C95.3486 13.8899 95.3772 13.8899 95.6343 14.0327C95.9772 14.2327 96.0343 14.4899 95.8914 15.2041C95.8343 15.547 95.8057 15.8327 95.8343 15.8612C95.8629 15.8898 96.4914 15.6327 97.4628 15.0898C99.2057 14.1185 99.6056 13.9756 99.6914 14.2899ZM93.0915 19.6611C93.5486 19.0897 94.52 17.5469 94.4629 17.4326C94.2058 17.4326 91.063 19.6611 90.3201 20.4039C89.8058 20.9182 89.5487 21.4039 89.663 21.661C89.7773 21.8896 90.3773 21.7753 91.0344 21.4324C91.7487 21.0325 92.6058 20.2611 93.0915 19.6611Z" fill="#2A2336"/>
<path d="M91.4717 14.35C92.1002 14.1215 92.386 14.1215 92.386 14.3786C92.386 14.4643 92.2431 14.5786 92.0145 14.6929C91.6431 14.8643 91.0431 15.0071 90.5288 15.0357C89.7003 15.0929 89.2717 14.8643 88.9289 14.5215C88.786 14.3786 88.6432 14.2643 88.586 14.2643C88.4432 14.2643 87.3575 15.3214 86.3861 16.3785C85.9004 16.9214 85.4432 17.3499 85.3575 17.3499C85.2718 17.3499 85.1575 17.2928 85.1004 17.2356C84.929 17.0642 85.2432 16.2928 85.9861 15.0929C86.6146 14.0643 86.8146 13.8929 87.0718 14.1215C87.2146 14.2358 87.2146 14.2643 87.0146 14.6072C86.7861 14.95 86.8146 14.95 87.6718 14.2643C88.7289 13.4358 88.8717 13.4072 89.2146 13.9786C89.4432 14.3215 89.586 14.4929 90.2717 14.4929C90.6717 14.4929 91.0431 14.4929 91.4717 14.35Z" fill="#2A2336"/>
<path d="M86.9278 14.092L86.9564 14.1492C87.0707 14.292 87.0195 14.685 86.2195 15.1421C84.7338 15.9992 83.591 16.2849 82.4195 16.2849C81.9338 16.2849 81.8196 16.3135 81.7624 16.4278C81.6767 16.6564 80.9053 17.2849 80.5339 17.3992C80.0196 17.5706 79.7053 17.542 79.3339 17.2849C78.6768 16.7992 78.8482 15.7992 79.7625 14.685C79.991 14.3993 80.2329 14.1851 80.3339 14.1136C80.4495 14.0317 80.5833 13.9355 80.7752 13.8783C80.9677 13.8053 81.1339 13.7422 81.3624 13.7422C81.591 13.7422 81.8196 13.7993 81.9624 13.9136C82.1962 14.4652 82.2408 14.5669 82.2196 15.3421L82.0767 15.7421H82.5338C83.4767 15.7421 84.6766 15.3993 85.9338 14.6279C86.6766 14.1707 86.785 13.9206 86.9278 14.092ZM80.991 16.4564L81.191 16.2278L80.9339 16.0849C80.7339 15.9421 80.4482 15.7707 80.3339 15.5993L80.1053 15.285L79.8767 15.685C79.5625 16.2278 79.4767 16.5992 79.6196 16.8563C79.7625 17.1135 79.9625 17.1135 80.4196 16.8849C80.6196 16.7992 80.8767 16.5992 80.991 16.4564ZM81.6767 15.1993C81.791 14.6564 81.7053 14.3707 81.4196 14.3422C81.391 14.3422 81.3624 14.3422 81.3339 14.3422C81.0481 14.3707 80.7339 14.7421 80.7339 15.0564C80.7339 15.2564 80.8196 15.3707 81.0481 15.5421C81.2196 15.6564 81.391 15.7135 81.4481 15.685C81.5053 15.6564 81.6196 15.4278 81.6767 15.1993Z" fill="#2A2336"/>
<path d="M134.245 14.5014L134.273 14.5585C134.387 14.7014 134.336 15.0944 133.536 15.5515C132.051 16.4086 131.519 16.3338 131.052 16.3338C130.567 16.3338 130.452 16.3623 130.395 16.4766C130.31 16.7052 129.538 17.3337 129.167 17.448C128.652 17.6194 128.338 17.5909 127.967 17.3337C127.31 16.848 127.481 15.8481 128.395 14.7338C128.624 14.4481 128.883 14.2405 128.967 14.1624C129.062 14.0738 129.208 14.0118 129.342 13.9224C129.514 13.8081 129.767 13.791 129.995 13.791C130.224 13.791 130.452 13.8482 130.595 13.9624C131.052 14.391 131.11 14.7338 130.852 15.3909L130.71 15.7909H131.167C131.557 15.7743 131.993 15.8086 133.251 15.0372C133.993 14.5801 134.102 14.33 134.245 14.5014ZM129.624 16.5052L129.824 16.2766L129.567 16.1338C129.367 15.9909 129.081 15.8195 128.967 15.6481L128.738 15.3338L128.51 15.7338C128.195 16.2766 128.11 16.648 128.252 16.9052C128.395 17.1623 128.595 17.1623 129.052 16.9337C129.252 16.848 129.51 16.648 129.624 16.5052ZM130.31 15.2481C130.424 14.7053 130.338 14.4196 130.052 14.391C130.024 14.391 129.995 14.391 129.967 14.391C129.681 14.4196 129.367 14.791 129.367 15.1052C129.367 15.3052 129.452 15.4195 129.681 15.5909C129.852 15.7052 130.024 15.7624 130.081 15.7338C130.138 15.7052 130.252 15.4767 130.31 15.2481Z" fill="#2A2336"/>
<path d="M115.861 14.1455V14.1725C115.942 14.1725 116.023 14.2535 116.05 14.3344C116.05 14.3884 115.888 14.5504 115.645 14.7933C114.943 15.4411 113.674 16.4128 113.027 16.7907C111.785 17.4924 110.759 17.7354 110.085 17.5194C109.815 17.4384 109.518 17.1415 109.383 16.8446C109.059 16.0349 109.545 14.4964 110.786 12.4451C112.055 10.3397 113.998 8.39635 115.213 8.01847C115.429 7.96449 115.537 7.9375 115.618 7.9375C115.699 7.9375 115.78 7.96449 115.915 8.04546C117.183 8.82821 115.051 11.7433 111.893 13.5517C111.542 13.7406 111.11 13.9566 110.921 14.0105C110.597 14.1185 110.57 14.1725 110.3 14.9013C109.95 15.873 109.896 16.7097 110.166 16.9526C110.57 17.3305 111.623 17.0876 112.838 16.3318C113.135 16.1429 114.079 15.4411 114.673 15.0092C115.078 14.7123 115.78 14.1455 115.861 14.1455ZM111.623 12.1481C111.164 12.8499 110.867 13.3897 110.975 13.3897C111.029 13.3897 111.461 13.1468 111.92 12.8499C112.838 12.2561 113.917 11.3654 114.538 10.6906C115.267 9.90787 115.807 8.8552 115.672 8.50432C115.645 8.42334 115.618 8.39635 115.564 8.39635C115.51 8.39635 115.429 8.42334 115.294 8.47733C114.403 8.8552 112.622 10.6366 111.623 12.1481Z" fill="#2A2336"/>
<path d="M81.9602 16.2213C82.7629 15.0397 82.1262 13.9888 81.9297 13.8906C81.9297 14.3481 81.9927 14.9753 81.9927 15.0069C81.9927 15.0386 81.971 15.8297 81.9602 16.2213Z" fill="#2A2336"/>
<path fill-rule="evenodd" clip-rule="evenodd" d="M111.207 7.94531C111.288 7.94531 111.369 7.97196 111.504 8.05273C112.772 8.83548 110.64 11.7512 107.482 13.5596C107.132 13.7485 106.7 13.9646 106.511 14.0186C106.187 14.1265 106.16 14.1805 105.89 14.9092C105.539 15.8805 105.485 16.7168 105.755 16.96C106.16 17.3378 107.212 17.0954 108.427 16.3398C108.626 16.2127 109.12 15.853 109.602 15.5V16.127C109.225 16.4053 108.872 16.6484 108.616 16.7979C107.375 17.4996 106.349 17.7433 105.674 17.5273C105.404 17.4464 105.108 17.1493 104.973 16.8525C104.649 16.0428 105.134 14.5044 106.376 12.4531C107.645 10.3478 109.588 8.40425 110.803 8.02637C111.018 7.97249 111.126 7.94538 111.207 7.94531ZM111.153 8.4043C111.099 8.40431 111.019 8.43143 110.884 8.48535C109.993 8.86323 108.212 10.6447 107.213 12.1562C106.754 12.8573 106.457 13.3965 106.564 13.3975C106.618 13.3975 107.051 13.1543 107.51 12.8574C108.427 12.2636 109.507 11.373 110.128 10.6982C110.857 9.91551 111.397 8.86258 111.262 8.51172C111.235 8.43083 111.207 8.4043 111.153 8.4043Z" fill="#2A2336"/>
<path fill-rule="evenodd" clip-rule="evenodd" d="M82.422 7.9323C82.8218 7.8753 82.7932 8.18928 82.3078 8.98894C82.0506 9.41749 81.8507 9.78947 81.8507 9.81804C81.867 9.84609 83.2037 9.84629 84.8791 9.87468C88.1359 9.90325 88.3073 9.93199 88.2501 10.3034C88.2215 10.5033 87.707 10.5888 87.507 10.446C87.3816 10.3605 82.4783 10.3321 81.7931 10.4177C81.4504 10.4748 81.3935 10.5322 81.0792 11.0749C80.8793 11.3891 80.4502 12.1033 80.1359 12.6462C79.4595 13.7789 78.9039 14.7076 78.4611 15.4635L78.4708 15.4665C78.1353 16.1719 77.8938 16.7101 77.8937 16.9069C77.8937 17.1068 77.8648 17.335 77.8078 17.3923C77.6649 17.5636 77.2366 17.5355 77.1222 17.3356C77.036 17.1998 77.2905 16.2955 77.7101 15.5241H77.6984C78.1021 14.8257 78.4745 14.2043 78.7072 13.7887C79.1071 13.0746 79.7073 12.0465 80.0216 11.5036C80.3358 10.961 80.5646 10.5032 80.5363 10.4743C80.4787 10.4173 80.1763 10.4178 79.2345 10.5319C78.5489 10.6176 78.463 10.6171 78.3488 10.4743C78.1491 10.2459 78.3494 10.1315 79.2062 10.0173C79.5871 9.96647 80.0224 9.903 80.3937 9.903H80.965L81.5929 8.9323C82.05 8.24663 82.2792 7.96087 82.422 7.9323Z" fill="#2A2336"/>
<path fill-rule="evenodd" clip-rule="evenodd" d="M103.179 7.94981C103.578 7.89307 103.55 8.20786 103.065 9.00743C102.808 9.43463 102.609 9.80495 102.608 9.83555C102.607 9.86376 102.59 9.85378 103.852 9.86485C107.107 9.89341 107.28 9.9215 107.223 10.2926C107.194 10.4921 106.681 10.578 106.481 10.4361C106.366 10.3504 103.237 10.3505 102.55 10.4361C102.207 10.4933 102.15 10.5507 101.836 11.0934C101.636 11.4078 101.207 12.122 100.893 12.6647C100.218 13.7941 99.664 14.7205 99.2218 15.4752L99.2287 15.4772C98.8931 16.1826 98.6516 16.7207 98.6515 16.9176C98.6515 17.1172 98.6226 17.3454 98.5656 17.4029C98.4228 17.5742 97.9945 17.546 97.88 17.3463C97.7939 17.2106 98.0473 16.3084 98.466 15.5377H98.4582C98.8608 14.8414 99.2318 14.2219 99.464 13.8072C99.864 13.093 100.464 12.0639 100.778 11.5211C101.091 10.9806 101.319 10.5248 101.293 10.4928C101.236 10.4357 100.934 10.4362 99.9914 10.5504C99.3063 10.636 99.2198 10.6352 99.1056 10.4928C98.9057 10.2643 99.106 10.15 99.9631 10.0357C100.344 9.98497 100.779 9.92149 101.151 9.92149H101.722L102.35 8.94981C102.807 8.26416 103.036 7.97838 103.179 7.94981Z" fill="#2A2336"/>
<path d="M77.1231 0.739443L77.0935 0.769115C78.1915 1.03619 78.6663 2.01549 78.1618 2.93543C77.8354 3.49927 77.3605 3.9444 76.2625 4.68629C75.2239 5.3985 74.1852 5.90298 73.7401 5.90298C73.2652 5.90298 72.8794 5.66558 72.8794 5.36882C72.8794 5.19077 73.2356 5.16109 73.3543 5.30947C73.5917 5.6359 75.1052 4.89402 76.4999 3.76635C77.776 2.7277 78.0431 1.95614 77.3309 1.42198C77.0935 1.24393 76.9748 1.21425 76.3219 1.21425C75.9064 1.21425 75.2832 1.2736 74.9271 1.36263C71.0989 2.19354 68.2203 3.85537 68.1906 5.25012C68.1906 6.05136 68.7545 6.37779 72.7311 7.92092C75.3426 8.92989 76.7373 9.8795 77.5386 11.1852C77.9244 11.8084 78.0162 11.909 78.0162 12.7993C78.0162 13.3916 77.9244 13.678 77.4793 14.4199C76.767 15.6069 75.6393 16.7346 73.8884 18.0106C70.6834 20.3846 67.33 21.8684 64.3921 22.1948C62.3444 22.4323 61.2761 21.6904 61.4541 20.1176C61.4838 19.7911 61.5728 19.435 61.7212 19.0492C62.2257 17.6248 63.3831 15.874 65.0449 14.0341C66.232 12.6987 67.3003 11.7787 67.5377 11.8678C67.8345 11.9568 67.7455 12.2239 67.2706 12.6393C66.0242 13.767 64.2437 15.9036 63.3534 17.3874C62.8192 18.2777 62.5521 18.8712 62.3741 19.435C62.1367 20.2066 62.018 20.8891 62.4631 21.3343C62.8192 21.6904 63.3831 21.7794 64.4811 21.631C67.2706 21.3046 70.9505 19.5537 74.0071 17.1203C77.6573 14.2121 78.1915 12.2535 75.8767 10.2653C75.0161 9.5234 74.2742 9.13762 71.4253 7.98027C70.1492 7.47579 68.8732 6.91195 68.5467 6.70422C66.4694 5.36882 67.5674 3.41024 71.2769 1.86711C73.3543 1.00652 76.0845 0.472363 77.1231 0.739443Z" fill="#2A2336"/>
</g>
<defs>
<clipPath id="clip0_6018_12188">
<rect width="135" height="24" fill="white"/>
</clipPath>
</defs>
</svg>
