<svg width="135" height="24" viewBox="0 0 135 24" fill="none" xmlns="http://www.w3.org/2000/svg">
<g clip-path="url(#clip0_5752_9226)">
<path d="M31.0004 7.2207H28.5237V9.72237H31.0004V7.2207Z" fill="#2A2336"/>
<path d="M24.8084 10.9736H27.2851V13.4736H28.5223V15.9752H26.0456V13.4753H24.8084V10.9736Z" fill="#2A2336"/>
<path d="M28.5237 14.727H31.0004V17.2287H28.5237V14.727Z" fill="#2A2336"/>
<path d="M32.2392 13.4736H31.002V15.9752H33.4787V13.4753H34.7159V10.9736H32.2392V13.4736Z" fill="#2A2336"/>
<path d="M26.0456 8.47067H28.5223V10.9723H26.0456V8.47067Z" fill="#2A2336"/>
<path d="M33.4787 8.47067H31.002V10.9723H33.4787V8.47067Z" fill="#2A2336"/>
<path d="M47.07 7.62642C48.0286 7.62642 48.825 7.83606 49.4585 8.25413C50.092 8.6728 50.571 9.2231 50.8968 9.90443C51.2226 10.5864 51.3849 11.3457 51.3849 12.1824V16.8287H48.863V12.6133C48.863 12.1471 48.7949 11.7254 48.6585 11.3488C48.5222 10.9721 48.3092 10.6705 48.019 10.4432C47.7288 10.2158 47.3529 10.1025 46.8914 10.1025C46.4298 10.1025 46.057 10.2134 45.7728 10.434C45.4887 10.6552 45.2787 10.9545 45.1423 11.3311C45.006 11.7077 44.9378 12.1233 44.9378 12.578V16.8293H42.4159V12.5956C42.4159 12.1294 42.3508 11.7077 42.2204 11.3311C42.0901 10.9545 41.8772 10.6558 41.5809 10.434C41.2847 10.2128 40.9118 10.1025 40.4624 10.1025C39.9888 10.1025 39.6099 10.2165 39.3257 10.4432C39.0415 10.6705 38.834 10.9721 38.7043 11.3488C38.574 11.7254 38.5088 12.141 38.5088 12.5956V16.8293H35.9869V12.1831C35.9869 11.3579 36.1468 10.6016 36.4666 9.91419C36.7863 9.22676 37.2629 8.67341 37.8958 8.25474C38.5293 7.83607 39.3191 7.62703 40.2669 7.62703C41.0241 7.62703 41.6787 7.76781 42.2295 8.04875C42.7797 8.3297 43.2063 8.7185 43.5079 9.21457C43.8096 9.71125 43.9665 10.2878 43.9785 10.9453H43.4102C43.4217 10.2878 43.5876 9.71064 43.9073 9.21457C44.2271 8.7185 44.6591 8.3297 45.2039 8.04875C45.7481 7.76781 46.3695 7.62703 47.0688 7.62703L47.07 7.62642Z" fill="#2A2336"/>
<path d="M18.8321 7.3968C16.1914 7.3968 14.0508 9.55841 14.0508 12.2265C14.0508 14.8945 16.1908 17.0561 18.8321 17.0561C21.4735 17.0561 23.6135 14.8945 23.6135 12.2265C23.6135 9.55841 21.4729 7.3968 18.8321 7.3968ZM18.8321 14.641C17.5114 14.641 16.4418 13.5599 16.4418 12.2265C16.4418 10.893 17.512 9.81193 18.8321 9.81193C20.1522 9.81193 21.2225 10.893 21.2225 12.2265C21.2225 13.5599 20.1522 14.641 18.8321 14.641Z" fill="#2A2336"/>
<path d="M57.6271 7.3968C54.9864 7.3968 52.8458 9.55841 52.8458 12.2265C52.8458 14.8945 54.9858 17.0561 57.6271 17.0561C60.2685 17.0561 62.4085 14.8945 62.4085 12.2265C62.4085 9.55841 60.2679 7.3968 57.6271 7.3968ZM57.6271 14.641C56.3065 14.641 55.2368 13.5599 55.2368 12.2265C55.2368 10.893 56.3071 9.81193 57.6271 9.81193C58.9472 9.81193 60.0175 10.893 60.0175 12.2265C60.0175 13.5599 58.9472 14.641 57.6271 14.641Z" fill="#2A2336"/>
<path d="M6.47217 7.66602H8.96902V10.1677H6.47217V7.66602Z" fill="#2A2336"/>
<path d="M5.22341 11.4189H2.72656V16.7947H5.22341V11.4189Z" fill="#2A2336"/>
<path d="M6.47072 8.91599H3.97388V11.4177H6.47072V8.91599Z" fill="#2A2336"/>
<path d="M8.97069 8.91599H11.4675V11.4177H8.97069V8.91599Z" fill="#2A2336"/>
<path d="M12.7148 11.4189H10.218V16.7947H12.7148V11.4189Z" fill="#2A2336"/>
<path fill-rule="evenodd" clip-rule="evenodd" d="M130.409 15.79C130.408 15.8843 130.448 15.8964 130.608 15.7781C130.497 16.3778 130.131 17.1553 130.031 17.5758C129.948 17.8165 129.85 18.1071 129.754 18.4032C129.233 19.992 128.542 21.3894 127.763 22.4559C126.767 23.8171 125.656 24.5289 125.041 24.2205C124.259 23.8383 124.863 22.2273 126.622 20.0705C127.423 19.0867 128.606 17.7635 129.233 17.1223C129.301 17.0495 129.356 16.9857 129.402 16.9222C129.664 16.6982 130.105 16.1759 130.409 15.79ZM128.993 18.1035C128.91 18.1257 128.598 18.5054 128.006 19.1667C126.286 21.1361 125.125 22.9855 125.28 23.565C125.339 23.7858 125.375 23.8061 125.608 23.6843C125.739 23.6196 126.013 23.4273 126.204 23.2579C127.009 22.5097 127.92 21.0535 128.518 19.5331C128.91 18.5705 129.076 18.0818 128.993 18.1035Z" fill="#2A2336"/>
<path d="M129.442 14.293L129.528 14.1787C129.556 14.2644 129.385 14.4644 129.07 14.7215C128.27 15.4072 126.699 16.4643 125.67 16.8929C124.642 17.35 123.956 17.2929 123.613 16.75C123.413 16.4358 123.47 16.0929 123.842 15.1215C123.985 14.7501 124.07 14.4358 124.042 14.4073C123.899 14.293 122.499 15.1215 121.728 15.7786C120.956 16.4358 119.899 17.15 119.699 17.15C119.585 17.15 119.413 17.0929 119.328 17.0072C119.213 16.9214 119.185 16.7786 119.213 16.5786C119.328 15.9501 120.442 14.093 120.842 13.893C120.956 13.8359 121.042 13.8359 121.156 13.9501C121.328 14.093 121.328 14.1216 121.071 14.4644C120.699 14.9787 120.013 16.1215 119.928 16.3786C119.871 16.5215 120.185 16.3215 120.985 15.6929C122.87 14.2358 123.928 13.7502 124.413 14.1216C124.699 14.3216 124.67 14.7215 124.356 15.4929C124.07 16.1786 124.013 16.7215 124.213 16.7786C124.728 16.9214 126.27 16.1215 128.27 14.693C129.07 14.1216 129.328 14.0359 129.442 14.293Z" fill="#2A2336"/>
<path d="M117.383 12.4927C117.097 12.8355 116.754 12.9498 116.64 12.7212C116.554 12.5498 117.097 11.8355 117.297 11.8641C117.64 11.9213 117.669 12.1498 117.383 12.4927ZM119.811 14.7497C120.726 14.1497 121.069 14.0355 121.126 14.3212C121.126 14.3783 120.897 14.5497 120.554 14.8068C119.783 15.3497 118.697 15.9782 117.84 16.4068C116.64 17.0068 116.183 17.1496 115.583 17.1496C115.183 17.1496 115.04 17.0925 114.783 16.8925C114.554 16.7211 114.469 16.5782 114.469 16.3496C114.469 15.9782 114.783 15.2068 115.154 14.664C115.554 14.064 115.783 13.8069 115.983 13.8069C116.069 13.8069 116.154 13.864 116.24 13.9497C116.354 14.064 116.297 14.2069 115.869 14.8926C115.069 16.1782 115.012 16.6639 115.697 16.6639C116.326 16.6639 117.954 15.9497 119.811 14.7497Z" fill="#2A2336"/>
<path d="M105.378 14.7504L105.406 14.779C105.515 14.7192 105.606 14.8019 105.578 14.9733C105.578 15.059 105.757 15.2182 105.578 15.3218C103.463 16.9789 102.006 17.6074 100.749 17.4074C99.7776 17.236 99.2634 16.7218 99.3491 16.0075C99.4634 15.0075 100.692 13.9219 101.578 13.9219C101.692 13.9219 101.806 13.9504 101.92 14.0076C102.406 14.2361 102.378 14.7504 101.806 15.2361C101.492 15.5218 101.149 15.5789 100.806 15.6075C100.235 15.6361 100.178 15.5504 100.092 15.7218C100.035 15.8361 100.006 16.0646 100.035 16.2361C100.063 16.6932 100.435 16.9218 101.149 16.9218C102.149 16.9218 103.435 16.2646 105.378 14.7504ZM100.835 14.6933C100.635 14.8647 100.606 14.9504 100.692 15.0075C100.863 15.0933 100.863 15.0933 101.235 14.9218C101.52 14.779 101.749 14.4647 101.635 14.379C101.635 14.379 101.606 14.379 101.578 14.379C101.435 14.379 101.12 14.4647 100.835 14.6933Z" fill="#2A2336"/>
<path d="M99.6914 14.2957H99.7485C99.7771 14.3815 99.2914 14.6957 98.0628 15.3528C95.4914 16.7528 95.6343 16.6099 95.4343 17.1528C95.1772 17.8384 94.3486 19.2384 93.8343 19.8669C92.9486 20.9526 91.5772 21.924 90.6344 22.1526C90.1487 22.2668 90.0916 22.2668 89.7487 22.2097C89.0916 22.0668 88.8916 21.4669 89.2916 20.7812C89.6916 20.0955 91.6344 18.5527 93.9486 17.0956C94.4915 16.7528 94.9486 16.4671 94.9772 16.4385C95.0343 16.3814 95.3772 14.9529 95.3772 14.7243C95.3772 14.61 95.3486 14.4957 95.2914 14.4957C95.2343 14.4957 94.72 14.9243 94.1486 15.4385C92.5772 16.8671 92.3772 17.0099 91.8344 17.0671C91.4344 17.0956 91.3487 17.0671 91.2058 16.8956C90.863 16.4956 91.1201 15.2957 91.7487 14.3815C91.9772 14.0386 92.1487 13.8672 92.3201 13.8672C92.4058 13.8672 92.4629 13.8958 92.5201 13.9529C92.6629 14.0672 92.6344 14.1243 92.3201 14.6386C91.9201 15.2957 91.7772 15.6385 91.6915 16.1814C91.6344 16.4956 91.6629 16.5814 91.7772 16.5814C91.9201 16.5814 92.9486 15.7243 93.9486 14.7814C94.2343 14.4957 94.6629 14.1815 94.92 14.0672C95.3486 13.8958 95.3772 13.8958 95.6343 14.0386C95.9772 14.2386 96.0343 14.4957 95.8914 15.21C95.8343 15.5528 95.8057 15.8385 95.8343 15.8671C95.8629 15.8957 96.4914 15.6385 97.4628 15.0957C99.2057 14.1243 99.6056 13.9815 99.6914 14.2957ZM93.0915 19.6669C93.5486 19.0955 94.52 17.5527 94.4629 17.4385C94.2058 17.4385 91.063 19.6669 90.3201 20.4098C89.8058 20.924 89.5487 21.4097 89.663 21.6669C89.7773 21.8954 90.3773 21.7811 91.0344 21.4383C91.7487 21.0383 92.6058 20.2669 93.0915 19.6669Z" fill="#2A2336"/>
<path d="M91.4717 14.3559C92.1002 14.1273 92.386 14.1273 92.386 14.3845C92.386 14.4702 92.2431 14.5845 92.0145 14.6987C91.6431 14.8702 91.0431 15.013 90.5288 15.0416C89.7003 15.0987 89.2717 14.8702 88.9289 14.5273C88.786 14.3845 88.6432 14.2702 88.586 14.2702C88.4432 14.2702 87.3575 15.3273 86.3861 16.3844C85.9004 16.9272 85.4432 17.3558 85.3575 17.3558C85.2718 17.3558 85.1575 17.2986 85.1004 17.2415C84.929 17.0701 85.2432 16.2987 85.9861 15.0987C86.6146 14.0702 86.8146 13.8988 87.0718 14.1273C87.2146 14.2416 87.2146 14.2702 87.0146 14.613C86.7861 14.9559 86.8146 14.9559 87.6718 14.2702C88.7289 13.4416 88.8717 13.4131 89.2146 13.9845C89.4432 14.3273 89.586 14.4987 90.2717 14.4987C90.6717 14.4987 91.0431 14.4987 91.4717 14.3559Z" fill="#2A2336"/>
<path d="M86.9278 14.0998L86.9564 14.157C87.0707 14.2998 87.0195 14.6928 86.2195 15.1499C84.7338 16.007 83.591 16.2928 82.4195 16.2928C81.9338 16.2928 81.8196 16.3213 81.7624 16.4356C81.6767 16.6642 80.9053 17.2927 80.5339 17.407C80.0196 17.5784 79.7053 17.5498 79.3339 17.2927C78.6768 16.807 78.8482 15.8071 79.7625 14.6928C79.991 14.4071 80.2329 14.1929 80.3339 14.1214C80.4495 14.0395 80.5833 13.9433 80.7752 13.8862C80.9677 13.8131 81.1339 13.75 81.3624 13.75C81.591 13.75 81.8196 13.8071 81.9624 13.9214C82.1962 14.4731 82.2408 14.5747 82.2196 15.3499L82.0767 15.7499H82.5338C83.4767 15.7499 84.6766 15.4071 85.9338 14.6357C86.6766 14.1786 86.785 13.9284 86.9278 14.0998ZM80.991 16.4642L81.191 16.2356L80.9339 16.0928C80.7339 15.9499 80.4482 15.7785 80.3339 15.6071L80.1053 15.2928L79.8767 15.6928C79.5625 16.2356 79.4767 16.607 79.6196 16.8642C79.7625 17.1213 79.9625 17.1213 80.4196 16.8927C80.6196 16.807 80.8767 16.607 80.991 16.4642ZM81.6767 15.2071C81.791 14.6642 81.7053 14.3785 81.4196 14.35C81.391 14.35 81.3624 14.35 81.3339 14.35C81.0481 14.3785 80.7339 14.75 80.7339 15.0642C80.7339 15.2642 80.8196 15.3785 81.0481 15.5499C81.2196 15.6642 81.391 15.7213 81.4481 15.6928C81.5053 15.6642 81.6196 15.4356 81.6767 15.2071Z" fill="#2A2336"/>
<path d="M134.245 14.5092L134.273 14.5664C134.387 14.7092 134.336 15.1022 133.536 15.5593C132.051 16.4164 131.519 16.3416 131.052 16.3416C130.567 16.3416 130.452 16.3701 130.395 16.4844C130.31 16.713 129.538 17.3415 129.167 17.4558C128.652 17.6272 128.338 17.5987 127.967 17.3415C127.31 16.8558 127.481 15.8559 128.395 14.7416C128.624 14.4559 128.883 14.2483 128.967 14.1702C129.062 14.0816 129.208 14.0196 129.342 13.9302C129.514 13.8159 129.767 13.7988 129.995 13.7988C130.224 13.7988 130.452 13.856 130.595 13.9702C131.052 14.3988 131.11 14.7416 130.852 15.3988L130.71 15.7987H131.167C131.557 15.7821 131.993 15.8164 133.251 15.0451C133.993 14.5879 134.102 14.3378 134.245 14.5092ZM129.624 16.513L129.824 16.2844L129.567 16.1416C129.367 15.9987 129.081 15.8273 128.967 15.6559L128.738 15.3416L128.51 15.7416C128.195 16.2844 128.11 16.6559 128.252 16.913C128.395 17.1701 128.595 17.1701 129.052 16.9416C129.252 16.8558 129.51 16.6559 129.624 16.513ZM130.31 15.2559C130.424 14.7131 130.338 14.4274 130.052 14.3988C130.024 14.3988 129.995 14.3988 129.967 14.3988C129.681 14.4274 129.367 14.7988 129.367 15.1131C129.367 15.3131 129.452 15.4273 129.681 15.5988C129.852 15.713 130.024 15.7702 130.081 15.7416C130.138 15.713 130.252 15.4845 130.31 15.2559Z" fill="#2A2336"/>
<path d="M115.861 14.1514V14.1784C115.942 14.1784 116.023 14.2593 116.05 14.3403C116.05 14.3943 115.888 14.5562 115.645 14.7992C114.943 15.4469 113.674 16.4186 113.027 16.7965C111.785 17.4983 110.759 17.7412 110.085 17.5253C109.815 17.4443 109.518 17.1474 109.383 16.8505C109.059 16.0408 109.545 14.5023 110.786 12.4509C112.055 10.3456 113.998 8.40221 115.213 8.02433C115.429 7.97035 115.537 7.94336 115.618 7.94336C115.699 7.94336 115.78 7.97035 115.915 8.05132C117.183 8.83407 115.051 11.7491 111.893 13.5576C111.542 13.7465 111.11 13.9624 110.921 14.0164C110.597 14.1244 110.57 14.1784 110.3 14.9071C109.95 15.8788 109.896 16.7155 110.166 16.9585C110.57 17.3363 111.623 17.0934 112.838 16.3377C113.135 16.1487 114.079 15.4469 114.673 15.0151C115.078 14.7182 115.78 14.1514 115.861 14.1514ZM111.623 12.154C111.164 12.8558 110.867 13.3956 110.975 13.3956C111.029 13.3956 111.461 13.1527 111.92 12.8558C112.838 12.262 113.917 11.3713 114.538 10.6965C115.267 9.91373 115.807 8.86106 115.672 8.51018C115.645 8.4292 115.618 8.40221 115.564 8.40221C115.51 8.40221 115.429 8.4292 115.294 8.48319C114.403 8.86106 112.622 10.6425 111.623 12.154Z" fill="#2A2336"/>
<path d="M81.9562 16.2291C82.759 15.0475 82.1223 13.9966 81.9258 13.8984C81.9258 14.3559 81.9888 14.9831 81.9888 15.0148C81.9888 15.0464 81.9671 15.8375 81.9562 16.2291Z" fill="#2A2336"/>
<path fill-rule="evenodd" clip-rule="evenodd" d="M111.203 7.95117C111.284 7.95117 111.365 7.97782 111.5 8.05859C112.769 8.84134 110.637 11.757 107.478 13.5654C107.128 13.7544 106.696 13.9704 106.507 14.0244C106.183 14.1324 106.156 14.1864 105.886 14.915C105.535 15.8863 105.481 16.7227 105.751 16.9658C106.156 17.3436 107.208 17.1012 108.423 16.3457C108.623 16.2186 109.116 15.8588 109.598 15.5059V16.1328C109.221 16.4111 108.868 16.6543 108.612 16.8037C107.371 17.5055 106.345 17.7491 105.67 17.5332C105.4 17.4522 105.104 17.1551 104.969 16.8584C104.645 16.0487 105.131 14.5102 106.372 12.459C107.641 10.3537 109.584 8.41011 110.799 8.03223C111.014 7.97835 111.122 7.95124 111.203 7.95117ZM111.149 8.41016C111.095 8.41017 111.015 8.43729 110.88 8.49121C109.989 8.86909 108.208 10.6506 107.209 12.1621C106.751 12.8632 106.453 13.4024 106.561 13.4033C106.614 13.4033 107.047 13.1602 107.506 12.8633C108.423 12.2695 109.503 11.3788 110.124 10.7041C110.853 9.92137 111.393 8.86844 111.258 8.51758C111.231 8.43669 111.203 8.41016 111.149 8.41016Z" fill="#2A2336"/>
<path fill-rule="evenodd" clip-rule="evenodd" d="M82.4217 7.9401C82.8215 7.8831 82.7931 8.1979 82.3075 8.99771C82.0512 9.42487 81.8517 9.79515 81.8504 9.82584C81.8504 9.85441 83.1931 9.85489 84.8787 9.88346C88.1357 9.91203 88.307 9.94076 88.2498 10.3122C88.2207 10.5119 87.7065 10.5975 87.5067 10.4547C87.3843 10.3692 82.4779 10.3408 81.7928 10.4264C81.4502 10.4836 81.3931 10.541 81.0789 11.0837C80.8789 11.398 80.4498 12.1122 80.1356 12.6549C79.4595 13.7872 78.9045 14.7156 78.4618 15.4713L78.4705 15.4743C78.135 16.1798 77.8935 16.7188 77.8934 16.9157C77.8934 17.1156 77.8646 17.3439 77.8075 17.401C77.6645 17.5723 77.2362 17.5433 77.1219 17.3434C77.0365 17.2059 77.2913 16.3026 77.7108 15.5319H77.6991C78.1025 14.834 78.4742 14.2129 78.7069 13.7975C79.1069 13.0833 79.707 12.0542 80.0213 11.5114C80.3356 10.9686 80.5645 10.5116 80.536 10.4831C80.4787 10.426 80.1767 10.4264 79.2342 10.5407C78.5485 10.6264 78.4628 10.6259 78.3485 10.4831C78.1486 10.2546 78.3489 10.1403 79.2059 10.026C79.5868 9.97525 80.0221 9.91178 80.3934 9.91178H80.9647L81.5926 8.9401C82.0497 8.25451 82.2789 7.96871 82.4217 7.9401Z" fill="#2A2336"/>
<path fill-rule="evenodd" clip-rule="evenodd" d="M103.174 7.95769C103.574 7.90066 103.545 8.21477 103.06 9.01434C102.803 9.44277 102.603 9.81487 102.603 9.84344C102.603 9.87151 102.587 9.86071 103.847 9.87176C107.104 9.90033 107.275 9.92906 107.218 10.3005C107.189 10.5001 106.676 10.5856 106.476 10.443C106.361 10.3573 103.231 10.3573 102.545 10.443C102.203 10.5002 102.145 10.5578 101.831 11.1003C101.631 11.4147 101.202 12.1289 100.888 12.6716C100.214 13.8007 99.6601 14.7275 99.218 15.4821L99.2238 15.4841C98.8885 16.1891 98.6481 16.7273 98.6476 16.9245C98.6476 17.1245 98.6179 17.3537 98.5607 17.4108C98.4176 17.5819 97.9904 17.5531 97.8762 17.3532C97.7901 17.2175 98.0426 16.3162 98.4611 15.5456H98.4533C98.856 14.8491 99.2269 14.2288 99.4592 13.8141C99.8591 13.1001 100.459 12.0719 100.774 11.529C101.087 10.9876 101.315 10.5314 101.288 10.5007C101.231 10.4435 100.929 10.443 99.9865 10.5573C99.3014 10.6429 99.2149 10.6433 99.1008 10.5007C98.9008 10.2721 99.1012 10.1579 99.9582 10.0436C100.339 9.99285 100.774 9.92939 101.146 9.92937H101.717L102.345 8.95769C102.802 8.27233 103.031 7.98649 103.174 7.95769Z" fill="#2A2336"/>
<path d="M77.1231 0.747255L77.0935 0.776928C78.1915 1.04401 78.6663 2.0233 78.1618 2.94324C77.8354 3.50708 77.3605 3.95221 76.2625 4.6941C75.2239 5.40631 74.1852 5.9108 73.7401 5.9108C73.2652 5.9108 72.8794 5.67339 72.8794 5.37664C72.8794 5.19858 73.2356 5.16891 73.3543 5.31729C73.5917 5.64372 75.1052 4.90183 76.4999 3.77416C77.776 2.73551 78.0431 1.96395 77.3309 1.42979C77.0935 1.25174 76.9748 1.22206 76.3219 1.22206C75.9064 1.22206 75.2832 1.28141 74.9271 1.37044C71.0989 2.20135 68.2203 3.86318 68.1906 5.25793C68.1906 6.05917 68.7545 6.3856 72.7311 7.92873C75.3426 8.9377 76.7373 9.88732 77.5386 11.193C77.9244 11.8162 78.0162 11.9168 78.0162 12.8071C78.0162 13.3994 77.9244 13.6858 77.4793 14.4277C76.767 15.6147 75.6393 16.7424 73.8884 18.0184C70.6834 20.3925 67.33 21.8762 64.3921 22.2027C62.3444 22.4401 61.2761 21.6982 61.4541 20.1254C61.4838 19.7989 61.5728 19.4428 61.7212 19.0571C62.2257 17.6326 63.3831 15.8818 65.0449 14.0419C66.232 12.7065 67.3003 11.7865 67.5377 11.8756C67.8345 11.9646 67.7455 12.2317 67.2706 12.6471C66.0242 13.7748 64.2437 15.9114 63.3534 17.3952C62.8192 18.2855 62.5521 18.879 62.3741 19.4428C62.1367 20.2144 62.018 20.8969 62.4631 21.3421C62.8192 21.6982 63.3831 21.7872 64.4811 21.6388C67.2706 21.3124 70.9505 19.5615 74.0071 17.1281C77.6573 14.2199 78.1915 12.2614 75.8767 10.2731C75.0161 9.53121 74.2742 9.14543 71.4253 7.98808C70.1492 7.4836 68.8732 6.91976 68.5467 6.71204C66.4694 5.37664 67.5674 3.41805 71.2769 1.87492C73.3543 1.01433 76.0845 0.480175 77.1231 0.747255Z" fill="#2A2336"/>
</g>
<defs>
<clipPath id="clip0_5752_9226">
<rect width="135" height="24" fill="white"/>
</clipPath>
</defs>
</svg>
