<svg width="8" height="8" viewBox="0 0 8 8" fill="none" xmlns="http://www.w3.org/2000/svg">
<path d="M7.80957 3.80664C8.02834 3.83243 8.02834 4.14999 7.80957 4.17578C7.0358 4.26702 6.33065 4.57213 5.74805 5.02637C5.86964 5.41291 6.0585 5.78334 6.32031 6.11621C6.43242 6.2587 6.24842 6.44436 6.10645 6.33203C5.77469 6.06902 5.40579 5.87797 5.02051 5.75586C4.56718 6.33936 4.26243 7.04541 4.17188 7.81934C4.14582 8.03797 3.82773 8.03803 3.80176 7.81934C3.7114 7.0471 3.40968 6.34156 2.95801 5.75879C2.57615 5.88102 2.21089 6.0712 1.88184 6.33203C1.73984 6.4446 1.55485 6.25875 1.66699 6.11621C1.9272 5.78544 2.11655 5.41808 2.23828 5.03418C1.65361 4.57511 0.943693 4.26764 0.165039 4.17578C-0.0537291 4.14999 -0.0537291 3.83243 0.165039 3.80664C0.942697 3.7149 1.6511 3.40731 2.23535 2.94922C2.1135 2.56852 1.9252 2.20421 1.66699 1.87598C1.55485 1.73344 1.73984 1.54759 1.88184 1.66016C2.20911 1.91959 2.57252 2.10815 2.95215 2.23047C3.40678 1.64647 3.71097 0.939234 3.80176 0.164062C3.82741 -0.0551888 4.14622 -0.0551888 4.17188 0.164062C4.26285 0.940962 4.57006 1.64865 5.02637 2.2334C5.40942 2.1112 5.77646 1.92176 6.10645 1.66016C6.24842 1.54783 6.43242 1.73349 6.32031 1.87598C6.06044 2.20639 5.87172 2.57359 5.75 2.95703C6.33229 3.41056 7.03653 3.71548 7.80957 3.80664Z" fill="#fff"/>
</svg>
